<svg id="Capa_1" enable-background="new 0 0 512 512" height="512" viewBox="0 0 512 512" width="512" xmlns="http://www.w3.org/2000/svg"><g><path d="m346 64.034c-36.78 6.161-75.886 20.433-90 25.867-28.553 10.992-58.488 21.749-90 27.678l-30 48.421v222.188l30 59.778c36.78-6.161 75.886-20.433 90-25.867 28.553-10.992 58.488-21.749 90-27.678l30-48.421v-210z" fill="#fff5f5"/><path d="m346 394.42 30-48.42v-210l-30-71.966c-36.78 6.161-75.886 20.433-90 25.867v332.197c28.554-10.991 58.488-21.749 90-27.678z" fill="#efe2dd"/><path d="m136 121c-43.315 0-114.599-28.594-115.316-28.872l-20.684-8.482v332.417l9.302 3.809c3.105 1.274 77.45 31.128 126.698 31.128 9.326 0 19.589-1.289 30-3.034v-330.386c-10.558 1.986-20.909 3.42-30 3.42z" fill="#00ab5e"/><path d="m502.698 92.128c-3.105-1.274-77.45-31.128-126.698-31.128-9.326 0-19.589 1.291-30 3.034v330.386c10.558-1.987 20.909-3.42 30-3.42 43.315 0 114.599 28.594 115.316 28.872l20.684 8.482v-332.417z" fill="#cc2e43"/><circle cx="256" cy="256" fill="#9b786f" r="45"/><path d="m301 256c0-24.814-20.186-45-45-45v90c24.814 0 45-20.186 45-45z" fill="#704c55"/></g></svg>